<?xml version="1.0" encoding="UTF-8"?>
<svg id="SVGDoc" width="567" height="339" xmlns="http://www.w3.org/2000/svg" version="1.1" xmlns:xlink="http://www.w3.org/1999/xlink" xmlns:avocode="https://avocode.com/" viewBox="0 0 567 339"><defs><linearGradient id="LinearGradient1268" gradientUnits="userSpaceOnUse" x1="169" y1="99.99994659423828" x2="169.99993896484375" y2="239.00000762939453"><stop stop-opacity="1" stop-color="#f1494c" offset="0"></stop><stop stop-opacity="1" stop-color="#ffbb73" offset="1"></stop></linearGradient><clipPath id="ClipPath1286"><path d="M169.49997,99.99995c38.38371,0 69.49997,31.11625 69.49997,69.50002c0,38.38377 -31.11626,69.50002 -69.49997,69.50002c-38.38383,0 -69.49997,-31.11625 -69.49997,-69.50002c0,-38.38377 31.11614,-69.50002 69.49997,-69.50002z" fill="#ffffff"></path></clipPath><clipPath id="ClipPath1305"><path d="M397.49992,99.99995c38.38383,0 69.49997,31.11625 69.49997,69.50002c0,38.38377 -31.11614,69.50002 -69.49997,69.50002c-38.38371,0 -69.49997,-31.11625 -69.49997,-69.50002c0,-38.38377 31.11626,-69.50002 69.49997,-69.50002z" fill="#ffffff"></path></clipPath></defs><desc>Generated with Avocode.</desc><g><g><title>active Days Remaining</title><g transform="matrix(1,0,0,1,80,71)"><text dominant-baseline="text-before-edge" style="fill: #818cb8; fill-opacity: 1; font-size: 13px; font-family: 'Rubik', 'Rubik-Regular'; font-weight: normal; font-style: none; text-transform: uppercase" ><tspan style="letter-spacing: 1.3px; font-kerning: normal">a</tspan><tspan style="letter-spacing: 1.3px; font-kerning: normal">ctive Days </tspan><tspan></tspan><tspan style="fill: #ffffff; fill-opacity: 1; letter-spacing: 1.3px; font-kerning: normal">Remaining</tspan></text></g></g><g><title>Recent Renewal</title><g transform="matrix(1,0,0,1,338,71)"><text dominant-baseline="text-before-edge" style="fill: #ffffff; fill-opacity: 1; font-size: 13px; font-family: 'Rubik', 'Rubik-Regular'; font-weight: normal; font-style: none; text-transform: uppercase" ><tspan style="fill: #818cb8; fill-opacity: 1; letter-spacing: 1.3px; font-kerning: normal">R</tspan><tspan style="fill: #818cb8; fill-opacity: 1; letter-spacing: 1.3px; font-kerning: normal">ecent</tspan><tspan></tspan><tspan style="letter-spacing: 1.3px; font-kerning: normal"> Renewal</tspan></text></g></g><g><title>Группа 4</title><g><title>9</title><g transform="matrix(1,0,0,1,156,149)"><text dominant-baseline="text-before-edge" style="fill: #ffffff; fill-opacity: 1; font-size: 48px; font-family: 'Rubik', 'Rubik-Regular'; font-weight: normal; font-style: none; text-transform: uppercase" ><tspan style="letter-spacing: 2.4px; font-kerning: normal">9</tspan></text></g></g><g><title>Эллипс 2</title><path d="M169.49997,99.99995c38.38371,0 69.49997,31.11625 69.49997,69.50002c0,38.38377 -31.11626,69.50002 -69.49997,69.50002c-38.38383,0 -69.49997,-31.11625 -69.49997,-69.50002c0,-38.38377 31.11614,-69.50002 69.49997,-69.50002z" fill="url(#LinearGradient1268)"></path><path d="M169.49997,99.99995c38.38371,0 69.49997,31.11625 69.49997,69.50002c0,38.38377 -31.11626,69.50002 -69.49997,69.50002c-38.38383,0 -69.49997,-31.11625 -69.49997,-69.50002c0,-38.38377 31.11614,-69.50002 69.49997,-69.50002z" fill-opacity="0" fill="#ffffff" stroke-dashoffset="0" stroke-dasharray="" stroke-linejoin="miter" stroke-linecap="butt" stroke-opacity="1" stroke="#f24f4f" stroke-miterlimit="20" stroke-width="10" clip-path="url(&quot;#ClipPath1286&quot;)"></path></g></g><g><title>Группа 4 копия</title><g><title>N/a</title><g transform="matrix(1,0,0,1,367,145)"><text dominant-baseline="text-before-edge" style="fill: #ffffff; fill-opacity: 1; font-size: 36px; font-family: 'Rubik', 'Rubik-Regular'; font-weight: normal; font-style: none; text-transform: uppercase" ><tspan style="letter-spacing: 1.8px; font-kerning: normal">N/a</tspan></text></g></g><g><title>N/S</title><g transform="matrix(1,0,0,1,386,183)"><text dominant-baseline="text-before-edge" style="fill: #818cb8; fill-opacity: 1; font-size: 13px; font-family: 'Rubik', 'Rubik-Regular'; font-weight: normal; font-style: none; text-transform: uppercase" ><tspan style="letter-spacing: 0.65px; font-kerning: normal">N/S</tspan></text></g></g><g><title>Эллипс 2</title><path d="M397.49992,99.99995c38.38383,0 69.49997,31.11625 69.49997,69.50002c0,38.38377 -31.11614,69.50002 -69.49997,69.50002c-38.38371,0 -69.49997,-31.11625 -69.49997,-69.50002c0,-38.38377 31.11626,-69.50002 69.49997,-69.50002z" fill-opacity="0" fill="#ffffff" stroke-dashoffset="0" stroke-dasharray="" stroke-linejoin="miter" stroke-linecap="butt" stroke-opacity="1" stroke="#38466d" stroke-miterlimit="20" stroke-width="10" clip-path="url(&quot;#ClipPath1305&quot;)"></path></g></g><g><title>Прямоугольник 22</title><path d="M284.99992,48.99998v0h1.99997v0v217.99998v0h-1.99997v0z" fill="#38466d" fill-opacity="1"></path></g></g></svg>