<?xml version="1.0" encoding="UTF-8"?>
<svg id="SVGDoc" width="88" height="60" xmlns="http://www.w3.org/2000/svg" version="1.1" xmlns:xlink="http://www.w3.org/1999/xlink" xmlns:avocode="https://avocode.com/" viewBox="0 0 88 60"><defs></defs><desc>Generated with Avocode.</desc><g><g><title>Фигура 34</title><path d="M64.54343,59.57563c0,0 -2.81662,-3.15418 -4.82132,-5.90677c9.7258,-2.76442 13.36555,-8.29349 13.36555,-8.29349c-3.19214,1.9906 -6.1042,3.1723 -8.46664,4.35333c-3.63388,1.58315 -7.27402,2.36301 -10.90797,3.16043c-17.20802,2.76446 -26.86852,-1.86095 -35.99792,-5.52902l-3.12065,-1.57104c0,0 3.63365,5.52878 12.97188,8.29296c-2.45239,2.77047 -4.88075,5.91888 -4.88075,5.91888c-16.62399,-0.38986 -22.68631,-10.6678 -22.68631,-10.6678c0,-22.89491 10.93727,-41.46595 10.93727,-41.46595c10.9375,-7.87978 21.07521,-7.50175 21.07521,-7.50175l0.81741,0.79756c-13.38379,3.16005 -19.45198,9.07865 -19.45198,9.07865c0,0 1.62308,-0.78559 4.45717,-1.9846c18.02612,-7.01733 37.71095,-6.5094 55.93353,2.3746c0,0 -6.08017,-5.53474 -18.64037,-9.07893l1.1097,-1.08085c1.73645,0.00572 10.92552,0.32482 20.7589,7.44247c0,0 11.00311,18.60662 11.00311,41.46609c-0.36415,-0.43716 -6.82602,9.84077 -23.45581,10.19521zM30.01286,26.43821l-0.02403,0.01774c-4.2424,0 -7.69699,3.53227 -7.69699,7.90334c0,4.33574 3.45459,7.87978 7.69699,7.87978c4.24278,0 7.69737,-3.54404 7.69737,-7.91521c0,-4.34146 -3.43086,-7.88565 -7.67334,-7.88565zM57.54422,26.43821v0.01774c-4.22485,0 -7.6857,3.53227 -7.69768,7.90334c0,4.33574 3.4549,7.87978 7.69768,7.87978c4.2424,0 7.6973,-3.54404 7.6973,-7.91521c0,-4.34146 -3.43704,-7.88565 -7.6973,-7.88565zM56.3448,0.37139h0.12535l-0.19714,0.07091z" fill="#ffffff" fill-opacity="1"></path></g></g></svg>