<?xml version="1.0" encoding="UTF-8"?>
<svg id="SVGDoc" width="77" height="77" xmlns="http://www.w3.org/2000/svg" version="1.1" xmlns:xlink="http://www.w3.org/1999/xlink" xmlns:avocode="https://avocode.com/" viewBox="0 0 77 77"><defs></defs><desc>Generated with Avocode.</desc><g><g><title>Фигура 35</title><path d="M45.41797,38.34956c0,3.73178 -3.03589,6.76761 -6.76765,6.76761c-3.73177,0 -6.7675,-3.03583 -6.7675,-6.76761c0,-3.73178 3.03574,-6.76756 6.7675,-6.76756c3.73177,0 6.76765,3.03578 6.76765,6.76756zM77,38.34956c0,21.14649 -17.50397,38.65042 -38.65044,38.65042c-21.14639,0 -38.34961,-17.50393 -38.34961,-38.65042c0,-21.14639 17.20322,-38.34958 38.34961,-38.34958c21.14647,0 38.65044,17.20319 38.65044,38.34958zM63.46484,40.60543c0,-17.8762 -12.34756,-27.07028 -24.81453,-27.07028c-13.68271,0 -24.81438,11.13172 -24.81438,24.81441c0,13.68275 11.13167,24.81446 24.81438,24.81446c5.51414,0 10.73082,-1.76907 15.09056,-5.11537c2.35489,-1.80836 -0.3698,-5.39403 -2.74925,-3.57766c-3.56232,2.73628 -7.82951,4.18134 -12.34131,4.18134c-11.19545,0 -20.30273,-9.10726 -20.30273,-20.30277c0,-11.19547 9.10728,-20.30272 20.30273,-20.30272c10.31197,0 20.30281,7.46074 20.30281,22.55859c0,2.48723 -2.02469,4.51174 -4.5118,4.51174c-2.48703,0 -4.51164,-2.02451 -4.51164,-4.51174c0,-5.01928 0,-6.26225 0,-11.2793c0,-1.24683 -1.00906,-2.25587 -2.25586,-2.25587c-1.24687,0 -2.25586,1.00904 -2.25586,2.25587v0.05765c-1.8911,-1.43142 -4.21883,-2.31352 -6.76765,-2.31352c-6.21902,0 -11.27922,5.06024 -11.27922,11.2793c0,6.2191 5.0602,11.2793 11.27922,11.2793c3.36182,0 6.35109,-1.50819 8.41934,-3.84932c1.63399,2.32124 4.32289,3.84932 7.37167,3.84932c4.97658,0 9.02351,-4.04687 9.02351,-9.02343z" fill="#ffffff" fill-opacity="1"></path></g></g></svg>