<?xml version="1.0" encoding="UTF-8"?>
<svg id="SVGDoc" width="22" height="22" xmlns="http://www.w3.org/2000/svg" version="1.1" xmlns:xlink="http://www.w3.org/1999/xlink" xmlns:avocode="https://avocode.com/" viewBox="0 0 22 22"><defs></defs><desc>Generated with Avocode.</desc><g><g><title>Фигура 21</title><path d="M14.66546,12.83318v3.66673c0,1.51615 -1.23367,2.74997 -2.74979,2.74997h-2.74979v0.91662c0,1.01109 -0.82203,1.83334 -1.83311,1.83334c-0.19535,0 -0.38132,-0.02751 -0.56831,-0.08526l-5.51617,-1.83887c-0.7497,-0.26035 -1.24832,-0.95978 -1.24832,-1.7426v-16.49981c0,-1.01113 0.82214,-1.8332 1.83323,-1.8332c0.04475,0 0.08698,0.01645 0.13103,0.02012c0.03399,-0.00453 0.06317,-0.02012 0.09808,-0.02012h9.85336c1.51611,0 2.74979,1.23382 2.74979,2.74997v2.74997c0,0.50588 -0.4097,0.91658 -0.91644,0.91658c-0.50697,0 -0.91656,-0.4107 -0.91656,-0.91658v-2.74997c0,-0.50526 -0.41073,-0.91677 -0.91679,-0.91677h-4.26956l0.27145,0.09079c0.7497,0.26031 1.24832,0.95973 1.24832,1.74255v13.74984h2.74979c0.50606,0 0.91679,-0.41156 0.91679,-0.91658v-3.66673c0,-0.50588 0.40958,-0.91658 0.91656,-0.91658c0.50674,0 0.91644,0.4107 0.91644,0.91658zM21.72978,9.81466l-3.66646,3.66678c-0.26196,0.26197 -0.6562,0.34089 -0.99895,0.19889c-0.34184,-0.14219 -0.56557,-0.47669 -0.56557,-0.84715v-2.74997h-3.66634c-0.50606,0 -0.91679,-0.41056 -0.91679,-0.91662c0,-0.50602 0.41073,-0.91658 0.91679,-0.91658h3.66634v-2.74997c0,-0.37045 0.22373,-0.70496 0.56557,-0.84715c0.34275,-0.142 0.737,-0.06309 0.99895,0.19908l3.66646,3.66659c0.35843,0.35834 0.35843,0.93775 0,1.29609z" fill="#ffffff" fill-opacity="1"></path></g></g></svg>