<?xml version="1.0" encoding="UTF-8"?>
<svg id="SVGDoc" width="14" height="13" xmlns="http://www.w3.org/2000/svg" version="1.1" xmlns:xlink="http://www.w3.org/1999/xlink" xmlns:avocode="https://avocode.com/" viewBox="0 0 14 13"><defs></defs><desc>Generated with Avocode.</desc><g><g><title>Фигура 31</title><path d="M10.92959,7.65938c0.04692,0.05074 0.07038,0.11563 0.07038,0.19479v2.70801c0,0.67139 -0.22007,1.24555 -0.66021,1.7221c-0.44014,0.47679 -0.97012,0.71526 -1.58981,0.71526h-6.50013c-0.6197,0 -1.14967,-0.23847 -1.58993,-0.71526c-0.44003,-0.47655 -0.6601,-1.05076 -0.6601,-1.7221v-7.04126c0,-0.67134 0.22007,-1.24545 0.6601,-1.72215c0.44014,-0.47674 0.97023,-0.71511 1.58993,-0.71511h5.49992c0.07301,0 0.13298,0.02532 0.17979,0.0761c0.04681,0.05069 0.07027,0.11563 0.07027,0.19455v0.54169c0,0.07906 -0.02346,0.14391 -0.07027,0.19469c-0.04681,0.05069 -0.10677,0.07615 -0.17979,0.07615h-5.49992c-0.34378,0 -0.63801,0.13256 -0.88291,0.39773c-0.24479,0.26522 -0.36713,0.58389 -0.36713,0.95625v7.04126c0,0.37246 0.12234,0.69113 0.36713,0.95634c0.2449,0.26512 0.53913,0.39763 0.88291,0.39763h6.50013c0.34367,0 0.63801,-0.13251 0.8828,-0.39763c0.24479,-0.26522 0.36713,-0.58393 0.36713,-0.95634v-2.70815c0,-0.07901 0.02335,-0.14391 0.07038,-0.19455c0.04658,-0.05093 0.10654,-0.07625 0.17956,-0.07625h0.50011c0.07278,0 0.13275,0.02532 0.17967,0.07625zM13.99992,0.54201v4.33311c0,0.14672 -0.04944,0.27361 -0.14843,0.3808c-0.09899,0.10724 -0.21629,0.16084 -0.35168,0.16084c-0.13538,0 -0.25269,-0.0536 -0.35156,-0.16084l-1.37501,-1.48945l-5.09377,5.51786c-0.05207,0.05641 -0.11192,0.0845 -0.17967,0.0845c-0.06775,0 -0.1276,-0.02813 -0.17967,-0.0845l-0.89069,-0.96469c-0.05207,-0.05641 -0.07816,-0.12131 -0.07816,-0.19479c0,-0.07319 0.02598,-0.13814 0.07816,-0.19455l5.09365,-5.51796l-1.37489,-1.48945c-0.09899,-0.10724 -0.14854,-0.23417 -0.14854,-0.3809c0,-0.14668 0.04955,-0.27366 0.14854,-0.3808c0.09888,-0.10724 0.21618,-0.16079 0.35156,-0.16079h3.99994c0.13538,0 0.25269,0.05355 0.35168,0.16079c0.09888,0.10715 0.14843,0.23403 0.14854,0.3808z" fill="#6584f6" fill-opacity="1"></path></g></g></svg>